<?xml version="1.0" encoding="utf-8"?>
<!-- Generator: Adobe Illustrator 19.0.0, SVG Export Plug-In . SVG Version: 6.00 Build 0)  -->
<svg version="1.1" id="Layer_1" xmlns="http://www.w3.org/2000/svg" xmlns:xlink="http://www.w3.org/1999/xlink" x="0px" y="0px"
	 viewBox="0 0 96 96" style="enable-background:new 0 0 96 96;" xml:space="preserve">
<style type="text/css">
	.st0{fill:#333333;}
</style>
<g id="XMLID_1_">
	<path id="XMLID_15_" class="st0" d="M42.5,65c0,0.2-0.1,0.5-0.3,0.7l-10,10C32,75.9,31.8,76,31.5,76c-0.2,0-0.5-0.1-0.7-0.3l-10-10
		c-0.3-0.3-0.4-0.7-0.2-1.1c0.2-0.4,0.5-0.6,0.9-0.6h6V21c0-0.3,0.1-0.5,0.3-0.7c0.2-0.2,0.4-0.3,0.7-0.3h6c0.3,0,0.5,0.1,0.7,0.3
		c0.2,0.2,0.3,0.4,0.3,0.7v43h6c0.3,0,0.5,0.1,0.7,0.3C42.4,64.5,42.5,64.7,42.5,65z M75.5,69v6c0,0.3-0.1,0.5-0.3,0.7
		C75,75.9,74.8,76,74.5,76h-26c-0.3,0-0.5-0.1-0.7-0.3c-0.2-0.2-0.3-0.4-0.3-0.7v-6c0-0.3,0.1-0.5,0.3-0.7c0.2-0.2,0.4-0.3,0.7-0.3
		h26c0.3,0,0.5,0.1,0.7,0.3C75.4,68.5,75.5,68.7,75.5,69z M69.5,53v6c0,0.3-0.1,0.5-0.3,0.7C69,59.9,68.8,60,68.5,60h-20
		c-0.3,0-0.5-0.1-0.7-0.3c-0.2-0.2-0.3-0.4-0.3-0.7v-6c0-0.3,0.1-0.5,0.3-0.7c0.2-0.2,0.4-0.3,0.7-0.3h20c0.3,0,0.5,0.1,0.7,0.3
		C69.4,52.5,69.5,52.7,69.5,53z M63.5,37v6c0,0.3-0.1,0.5-0.3,0.7C63,43.9,62.8,44,62.5,44h-14c-0.3,0-0.5-0.1-0.7-0.3
		c-0.2-0.2-0.3-0.4-0.3-0.7v-6c0-0.3,0.1-0.5,0.3-0.7c0.2-0.2,0.4-0.3,0.7-0.3h14c0.3,0,0.5,0.1,0.7,0.3S63.5,36.7,63.5,37z
		 M57.5,21v6c0,0.3-0.1,0.5-0.3,0.7C57,27.9,56.8,28,56.5,28h-8c-0.3,0-0.5-0.1-0.7-0.3c-0.2-0.2-0.3-0.4-0.3-0.7v-6
		c0-0.3,0.1-0.5,0.3-0.7c0.2-0.2,0.4-0.3,0.7-0.3h8c0.3,0,0.5,0.1,0.7,0.3C57.4,20.5,57.5,20.7,57.5,21z"/>
</g>
</svg>
